<?xml version="1.0" encoding="utf-8"?>
<!-- Generator: Adobe Illustrator 16.0.0, SVG Export Plug-In . SVG Version: 6.00 Build 0)  -->
<!DOCTYPE svg PUBLIC "-//W3C//DTD SVG 1.1//EN" "http://www.w3.org/Graphics/SVG/1.1/DTD/svg11.dtd">
<svg version="1.1" id="Layer_1" xmlns="http://www.w3.org/2000/svg" xmlns:xlink="http://www.w3.org/1999/xlink" x="0px" y="0px"
	 width="82.298px" height="82.296px" viewBox="0 0 82.298 82.296" enable-background="new 0 0 82.298 82.296" xml:space="preserve">
<path fill="#FFFFFF" d="M51.319,22.229c-6.722-3.681-13.877-3.566-20.165,0.332c-5.201,3.225-7.914,7.799-8.768,14.813h37.94
	C60.238,30.74,57.047,25.371,51.319,22.229"/>
<path fill="#FFFFFF" d="M41.148,0C18.423,0,0,18.424,0,41.146c0,22.727,18.423,41.15,41.148,41.15
	c22.728,0,41.15-18.424,41.15-41.15C82.298,18.424,63.875,0,41.148,0 M69.776,44.494H22.305c0.972,8.297,4.779,13.736,11.632,16.627
	c9.07,3.823,17.898,2.22,26.985-4.908l0.218-0.172l0.177,0.218c0.695,0.864,1.402,1.771,2.12,2.694
	c0.71,0.908,1.433,1.836,2.168,2.756l0.162,0.203l-0.187,0.181c-6.037,5.76-13.725,8.573-23.452,8.573
	c-0.56,0-1.127-0.008-1.698-0.026c-8.624-0.276-16.258-3.748-21.489-9.772c-5.249-6.049-7.639-13.992-6.722-22.371
	c1.395-12.762,8.349-21.44,20.106-25.104c8.047-2.502,16.76-1.556,23.897,2.607c6.821,3.979,11.47,10.314,13.093,17.842
	c0.642,2.977,0.946,6.202,0.957,10.151C70.272,44.268,70.048,44.494,69.776,44.494"/>
</svg>
