<?xml version="1.0" encoding="utf-8"?>
<!-- Generator: Adobe Illustrator 16.0.0, SVG Export Plug-In . SVG Version: 6.00 Build 0)  -->
<!DOCTYPE svg PUBLIC "-//W3C//DTD SVG 1.1//EN" "http://www.w3.org/Graphics/SVG/1.1/DTD/svg11.dtd">
<svg version="1.1" id="Layer_1" xmlns="http://www.w3.org/2000/svg" xmlns:xlink="http://www.w3.org/1999/xlink" x="0px" y="0px"
	 width="453.543px" height="226.779px" viewBox="0 0 453.543 226.779" enable-background="new 0 0 453.543 226.779"
	 xml:space="preserve">
<g>
	<path fill="#FFFFFF" d="M231.577,29.399c-6.722-3.681-13.877-3.566-20.165,0.332c-5.201,3.225-7.914,7.8-8.768,14.813h37.94
		C240.496,37.91,237.306,32.541,231.577,29.399"/>
	<path fill="#FFFFFF" d="M221.406,7.17c-22.725,0-41.148,18.424-41.148,41.146c0,22.727,18.423,41.151,41.148,41.151
		c22.728,0,41.15-18.424,41.15-41.151C262.557,25.594,244.134,7.17,221.406,7.17 M250.034,51.663h-47.471
		c0.972,8.297,4.779,13.737,11.632,16.627c9.07,3.824,17.898,2.22,26.985-4.907l0.218-0.173l0.177,0.218
		c0.695,0.864,1.402,1.77,2.12,2.694c0.71,0.909,1.433,1.837,2.168,2.757l0.162,0.202l-0.187,0.181
		c-6.037,5.76-13.725,8.573-23.452,8.573c-0.56,0-1.127-0.008-1.698-0.026c-8.624-0.276-16.258-3.748-21.489-9.773
		c-5.249-6.048-7.639-13.992-6.722-22.37c1.395-12.762,8.349-21.441,20.106-25.105c8.047-2.502,16.76-1.556,23.897,2.607
		c6.821,3.979,11.47,10.314,13.093,17.842c0.642,2.977,0.946,6.202,0.957,10.152C250.53,51.438,250.307,51.663,250.034,51.663"/>
	<path fill="#FFFFFF" d="M311.529,124.318c-0.021-1.896-0.573-4.06-1.643-6.435c-3.021-6.739-11.698-10.225-21.144-8.488
		c-6.294,1.167-11.559,3.77-16.506,8.181v-7.018h-9.416v56.371h9.479v-0.283c0-5.882-0.037-11.911-0.074-17.737
		c-0.037-5.755-0.073-11.698-0.073-17.427c0-5.327,1.958-8.621,6.553-11.011c1.777-0.924,3.654-1.615,5.915-2.172
		c4.009-1.001,9.59-1.556,13.361,1.396c2.698,2.109,4.065,5.714,4.065,10.712c0,4.389-0.013,8.705-0.027,13.002
		c-0.014,4.546-0.025,9.065-0.025,13.631v9.89h9.671v-0.801v-1.143c-0.005-3.032-0.005-6.065-0.005-9.096
		C311.661,145.543,311.661,134.842,311.529,124.318"/>
	<path fill="#FFFFFF" d="M116.564,135.325c-1.888-0.772-3.909-1.337-5.86-1.881c-0.625-0.177-1.251-0.35-1.877-0.534
		c-1.657-0.481-3.317-0.945-4.981-1.409c-2.9-0.811-5.896-1.649-8.812-2.566c-2.772-0.872-4.244-2.617-4.369-5.182
		c-0.14-2.794,1.071-4.878,3.699-6.364c3-1.706,6.445-2.345,10.895-1.974c6.031,0.489,11.007,2.697,15.222,6.759l0.235,0.227
		l0.192-0.264c1.462-2.054,2.786-3.914,4.086-5.736l0.133-0.187l-0.159-0.169c-8.816-9.46-27.508-11.276-37.745-3.686
		c-4.289,3.185-6.519,7.764-6.118,12.57c0.405,4.812,3.375,8.971,8.153,11.405c1.985,1.015,4.153,1.685,6.202,2.284
		c2.309,0.679,4.668,1.322,6.951,1.947c3.018,0.828,6.139,1.688,9.173,2.617c3.777,1.163,5.702,3.461,5.727,6.822
		c0.03,3.674-2.385,6.615-6.143,7.486c-3.714,0.868-7.671,1.152-11.462,0.832c-5.176-0.431-10.079-2.812-14.987-7.276l-0.227-0.206
		l-4.768,6.294l-0.146,0.19l0.169,0.178c5.613,5.774,15.191,8.988,24.243,8.988c5.234,0,10.296-1.074,14.308-3.354
		c5.805-3.294,8.654-8.175,8.474-14.51C126.591,142.507,123.157,138.03,116.564,135.325"/>
	<path fill="#FFFFFF" d="M173.155,135.365c-1.902-0.791-3.938-1.36-5.907-1.909c-0.612-0.171-1.223-0.344-1.826-0.521
		c-1.58-0.46-3.196-0.89-4.756-1.306c-3.185-0.844-6.479-1.72-9.574-2.897c-2.187-0.828-3.645-2.48-4.001-4.531
		c-0.358-2.064,0.493-4.208,2.278-5.731c1.138-0.971,2.606-1.759,4.034-2.157c7.837-2.182,15.177-0.725,21.784,4.318
		c0.383,0.291,0.762,0.589,1.175,0.913l0.939,0.731l0.172-0.242c1.454-2.055,2.772-3.917,4.053-5.73l0.14-0.2l-0.177-0.166
		c-9.729-9.335-27.221-11.12-37.446-3.813c-4.562,3.258-6.969,8.176-6.439,13.152c0.53,4.985,3.935,9.295,9.107,11.533
		c2.117,0.916,4.406,1.532,6.619,2.127c1.034,0.277,2.097,0.564,3.132,0.877c1.314,0.395,2.662,0.766,3.964,1.126
		c2.957,0.814,6.015,1.653,8.842,2.842c2.665,1.115,4.392,3.279,4.62,5.794c0.224,2.467-1.049,4.855-3.405,6.395
		c-2.165,1.41-5.165,2.375-8.234,2.646c-7.756,0.696-14.625-1.776-21.031-7.542l-0.224-0.201l-4.95,6.371l0.165,0.177
		c5.378,5.831,15.066,9.078,24.221,9.078c5.57,0,10.94-1.204,15.023-3.756c5.407-3.379,8.027-8.187,7.785-14.29
		C183.006,142.466,179.612,138.063,173.155,135.365"/>
	<path fill="#FFFFFF" d="M372.141,154.336c-1.046-0.85-2.124-1.726-3.19-2.635l-0.203-0.174l-0.895,0.936
		c-0.306,0.324-0.549,0.578-0.796,0.828c-4.247,4.227-10.134,6.191-16.178,5.403c-5.904-0.78-10.962-4.111-13.874-9.131
		c-3.11-5.386-3.897-11.386-2.333-17.831c1.859-7.643,6.321-12.413,13.266-14.188c7.978-2.035,14.279-0.404,19.802,5.112
		c0.176,0.196,0.367,0.372,0.573,0.561c0.158,0.14,0.324,0.291,0.5,0.468l0.188,0.19l0.199-0.181
		c1.002-0.901,2.036-1.781,3.037-2.635c1.019-0.872,1.979-1.693,2.903-2.529l0.195-0.176l-0.158-0.207
		c-5.091-6.538-11.964-8.775-16.834-9.5c-6.007-0.899-12.545-0.019-17.952,2.415c-12.965,5.834-19.405,20.76-15.315,35.488
		c3.507,12.64,14.577,20.532,28.509,20.532c0.692,0,1.395-0.021,2.102-0.06c8.018-0.445,14.603-3.724,19.568-9.75l0.177-0.213
		l-0.21-0.182C374.221,156.024,373.208,155.202,372.141,154.336"/>
	<path fill="#FFFFFF" d="M440.273,129.586c-1.619-7.524-6.27-13.859-13.091-17.838c-7.134-4.167-15.843-5.113-23.899-2.613
		c-11.762,3.662-18.711,12.341-20.104,25.104c-0.916,8.378,1.47,16.321,6.719,22.369c5.233,6.027,12.864,9.501,21.489,9.778
		c0.57,0.017,1.139,0.024,1.697,0.024c9.733,0,17.418-2.812,23.455-8.572l0.188-0.182l-0.161-0.202
		c-0.755-0.938-1.49-1.881-2.213-2.812c-0.707-0.901-1.398-1.792-2.079-2.638l-0.178-0.219l-0.217,0.174
		c-9.081,7.131-17.899,8.742-26.98,4.906c-6.855-2.886-10.661-8.33-11.637-16.627h47.471c0.271,0,0.497-0.224,0.497-0.501
		C441.223,135.808,440.917,132.583,440.273,129.586 M393.347,133.12c0.852-7.013,3.563-11.588,8.77-14.815
		c6.287-3.892,13.445-3.997,20.161-0.328c5.73,3.14,8.923,8.51,9.01,15.144H393.347z"/>
	<path fill="#FFFFFF" d="M236.635,111.748c-7.138-4.167-15.851-5.113-23.897-2.613c-11.76,3.662-18.713,12.341-20.105,25.104
		c-0.916,8.378,1.473,16.325,6.722,22.373c5.234,6.026,12.861,9.497,21.486,9.774c0.57,0.017,1.138,0.024,1.696,0.024
		c9.734,0,17.419-2.812,23.456-8.572l0.188-0.182l-0.161-0.202c-0.737-0.916-1.457-1.844-2.169-2.757
		c-0.722-0.92-1.428-1.829-2.123-2.693l-0.178-0.219l-0.217,0.174c-9.085,7.131-17.901,8.742-26.982,4.906
		c-6.854-2.89-10.66-8.33-11.632-16.627h47.467c0.275,0,0.501-0.224,0.501-0.501c-0.013-3.953-0.317-7.178-0.962-10.151
		C248.105,122.062,243.456,115.727,236.635,111.748 M202.799,133.12c0.851-7.009,3.563-11.588,8.769-14.815
		c6.287-3.892,13.45-3.997,20.162-0.328c5.729,3.14,8.922,8.51,9.01,15.144H202.799z"/>
	<path fill="#FFFFFF" d="M56.508,111.748c-7.138-4.167-15.855-5.113-23.898-2.613c-11.76,3.662-18.713,12.341-20.105,25.104
		c-0.917,8.378,1.473,16.325,6.722,22.373c5.234,6.026,12.861,9.497,21.486,9.774c0.57,0.017,1.137,0.024,1.696,0.024
		c9.734,0,17.419-2.812,23.456-8.572l0.188-0.182l-0.162-0.202c-0.737-0.916-1.458-1.844-2.168-2.757
		c-0.722-0.92-1.429-1.829-2.124-2.693l-0.177-0.219l-0.217,0.174c-9.085,7.131-17.901,8.742-26.982,4.906
		c-6.854-2.89-10.66-8.33-11.632-16.627h47.467c0.276,0,0.501-0.224,0.501-0.501c-0.012-3.953-0.317-7.178-0.961-10.151
		C67.978,122.062,63.329,115.727,56.508,111.748 M22.672,133.12c0.851-7.009,3.563-11.588,8.769-14.815
		c6.287-3.892,13.446-3.997,20.16-0.328c5.731,3.14,8.923,8.51,9.011,15.144H22.672z"/>
	<path fill="#FFFFFF" d="M105.919,210.039c-0.663,3.222-3.506,9.57-12.46,9.57c-8.907,0-13.883-5.353-13.883-13.076
		c0-7.391,4.549-13.077,13.883-13.077c8.433,0,11.702,5.26,12.271,8.812h-3.506c-1.09-4.216-4.407-5.875-8.765-5.875
		c-7.06,0-10.376,4.455-10.376,10.14c0,6.111,3.695,10.139,10.376,10.139c5.164,0,8.054-2.796,8.954-6.633H105.919z"/>
	<path fill="#FFFFFF" d="M129.327,193.456c9.476,0,13.977,6.207,13.977,13.077s-4.501,13.076-13.977,13.076
		c-9.476,0-13.977-6.206-13.977-13.076S119.852,193.456,129.327,193.456 M129.327,216.67c6.633,0,10.471-4.216,10.471-10.138
		c0-5.923-3.838-10.139-10.471-10.139c-6.633,0-10.471,4.216-10.471,10.139C118.856,212.455,122.694,216.67,129.327,216.67"/>
	<path fill="#FFFFFF" d="M172.587,201.509c-0.9-3.979-3.364-5.115-8.48-5.115c-3.696,0-7.107,0.805-7.107,4.217
		c0,2.558,1.657,3.079,9.144,4.075c7.533,0.994,10.66,2.32,10.66,7.105c0,4.879-3.98,7.818-11.702,7.818
		c-7.819,0-12.461-2.56-12.461-8.481h3.221c0.617,4.122,2.938,5.542,9.24,5.542c4.88,0,8.196-0.994,8.196-4.688
		c0-2.463-1.753-3.554-9.429-4.312c-7.675-0.758-10.376-2.558-10.376-6.918c0-4.263,3.459-7.296,10.614-7.296
		c8.006,0,11.276,2.892,11.702,8.054H172.587z"/>
	<path fill="#FFFFFF" d="M225.465,203.216c0-4.502-2.274-6.822-7.344-6.822c-5.401,0-8.386,3.127-8.386,7.913v14.544h-3.506v-16.678
		c0-3.127-2.227-5.779-7.012-5.779c-5.023,0-8.718,2.89-8.718,8.575v13.882h-3.506v-24.638h3.506v4.55h0.095
		c1.469-2.607,4.122-5.308,9.761-5.308c5.543,0,8.101,2.938,8.811,5.402c1.185-2.464,4.738-5.402,9.665-5.402
		c6.918,0,10.14,3.506,10.14,8.576v16.819h-3.505V203.216z"/>
	<path fill="#FFFFFF" d="M266.596,210.986c-1.422,4.359-5.119,8.623-13.268,8.623c-10.092,0-13.408-7.059-13.408-13.075
		c0-6.87,4.217-13.077,13.408-13.077c6.35,0,13.882,2.748,13.882,13.929h-23.783c0,5.117,3.647,9.285,9.901,9.285
		c5.875,0,8.528-1.942,9.76-5.685H266.596z M263.704,204.732c-0.995-6.063-5.447-8.339-10.14-8.339
		c-4.501,0-9.333,2.321-10.138,8.339H263.704z"/>
	<path fill="#FFFFFF" d="M280.242,186.444h3.505v7.771h6.967v2.653h-6.967v16.299c0,2.132,0.664,3.126,3.508,3.126
		c1.704,0,2.795-0.143,3.459-0.284v2.937c-1.327,0.19-2.7,0.285-3.839,0.285c-5.448,0-6.633-2.132-6.633-6.111v-16.251h-5.354
		v-2.653h5.354V186.444z"/>
	<path fill="#FFFFFF" d="M300.854,184.738h3.507v5.212h-3.507V184.738z M300.854,194.213h3.507v24.638h-3.507V194.213z"/>
	<path fill="#FFFFFF" d="M341.126,210.039c-0.663,3.222-3.506,9.57-12.461,9.57c-8.905,0-13.881-5.353-13.881-13.076
		c0-7.391,4.548-13.077,13.881-13.077c8.435,0,11.703,5.26,12.273,8.812h-3.507c-1.09-4.216-4.407-5.875-8.767-5.875
		c-7.059,0-10.375,4.455-10.375,10.14c0,6.111,3.695,10.139,10.375,10.139c5.165,0,8.056-2.796,8.955-6.633H341.126z"/>
	<path fill="#FFFFFF" d="M369.745,201.509c-0.898-3.979-3.362-5.115-8.479-5.115c-3.697,0-7.108,0.805-7.108,4.217
		c0,2.558,1.659,3.079,9.145,4.075c7.532,0.994,10.659,2.32,10.659,7.105c0,4.879-3.979,7.818-11.7,7.818
		c-7.819,0-12.461-2.56-12.461-8.481h3.221c0.617,4.122,2.938,5.542,9.24,5.542c4.879,0,8.194-0.994,8.194-4.688
		c0-2.463-1.752-3.554-9.428-4.312c-7.676-0.758-10.376-2.558-10.376-6.918c0-4.263,3.459-7.296,10.614-7.296
		c8.006,0,11.275,2.892,11.702,8.054H369.745z"/>
</g>
</svg>
