<svg xmlns="http://www.w3.org/2000/svg" width="23" height="23"><path fill="#AA198D" d="M21.864 20.804l-5.747-5.748c2.064-2.459 2.716-5.96 1.377-9.111a8.796 8.796 0 0 0-11.549-4.66 8.746 8.746 0 0 0-4.722 4.808 8.748 8.748 0 0 0 .062 6.739 8.795 8.795 0 0 0 11.549 4.661 8.776 8.776 0 0 0 2.229-1.371l5.74 5.742a.748.748 0 0 0 1.06 0 .748.748 0 0 0 .001-1.06zm-9.616-4.692a7.3 7.3 0 0 1-9.583-3.866 7.26 7.26 0 0 1-.051-5.591 7.258 7.258 0 0 1 3.917-3.99 7.298 7.298 0 0 1 9.582 3.867c1.576 3.706-.158 8.004-3.865 9.58z"/></svg>